<svg xmlns="http://www.w3.org/2000/svg" xmlns:xlink="http://www.w3.org/1999/xlink" width="500" zoomAndPan="magnify" viewBox="0 0 375 374.999991" height="500" preserveAspectRatio="xMidYMid meet" version="1.0"><path fill="#ffffff" d="M 187.519531 0 C 291.054688 0 375 83.945312 375 187.519531 C 375 291.054688 291.054688 375 187.519531 375 C 83.945312 375 0 291.054688 0 187.519531 C 0 83.945312 83.945312 0 187.519531 0 Z M 362.804688 181.546875 C 359.722656 89.429688 285.640625 15.320312 193.566406 12.199219 L 193.566406 181.472656 Z M 206.632812 112.292969 C 210.457031 96.53125 224.652344 84.824219 241.582031 84.824219 C 258.523438 84.824219 272.71875 96.53125 276.566406 112.285156 C 276.828125 113.40625 276.558594 114.585938 275.84375 115.488281 C 275.125 116.390625 274.035156 116.917969 272.882812 116.917969 C 260.054688 116.917969 223.113281 116.917969 210.285156 116.882812 C 209.140625 116.882812 208.0625 116.359375 207.351562 115.46875 C 206.640625 114.574219 206.375 113.402344 206.632812 112.292969 Z M 241.582031 77.265625 C 231.570312 77.265625 223.40625 69.09375 223.40625 59.082031 C 223.40625 49.070312 231.570312 40.898438 241.582031 40.898438 C 251.605469 40.898438 259.765625 49.070312 259.765625 59.082031 C 259.765625 69.09375 251.605469 77.265625 241.582031 77.265625 Z M 278.140625 164.949219 C 281.964844 149.191406 296.160156 137.484375 313.089844 137.484375 C 330.027344 137.484375 344.226562 149.191406 348.074219 164.945312 C 348.335938 166.066406 348.066406 167.246094 347.351562 168.148438 C 346.632812 169.050781 345.542969 169.574219 344.390625 169.574219 C 331.5625 169.574219 294.621094 169.574219 281.789062 169.539062 C 280.648438 169.539062 279.570312 169.019531 278.859375 168.125 C 278.148438 167.230469 277.882812 166.0625 278.140625 164.949219 Z M 313.089844 129.925781 C 303.078125 129.925781 294.914062 121.753906 294.914062 111.738281 C 294.914062 101.726562 303.078125 93.554688 313.089844 93.554688 C 323.113281 93.554688 331.273438 101.726562 331.273438 111.738281 C 331.273438 121.753906 323.113281 129.925781 313.089844 129.925781 Z M 181.472656 12.199219 C 87.378906 15.386719 12.097656 92.652344 12.097656 187.519531 C 12.097656 284.375 90.625 362.902344 187.519531 362.902344 C 217.792969 362.902344 246.277344 355.230469 271.132812 341.722656 L 182.304688 190.585938 C 181.757812 189.65625 181.472656 188.597656 181.472656 187.519531 Z M 103.519531 207.878906 C 107.339844 192.117188 121.539062 180.410156 138.46875 180.410156 C 155.40625 180.410156 169.605469 192.117188 173.453125 207.871094 C 173.710938 208.996094 173.445312 210.175781 172.726562 211.074219 C 172.011719 211.976562 170.921875 212.5 169.769531 212.5 C 156.941406 212.5 120 212.5 107.167969 212.46875 C 106.027344 212.46875 104.945312 211.945312 104.238281 211.054688 C 103.527344 210.160156 103.261719 208.988281 103.519531 207.878906 Z M 138.46875 172.851562 C 128.453125 172.851562 120.292969 164.679688 120.292969 154.667969 C 120.292969 144.65625 128.453125 136.484375 138.46875 136.484375 C 148.488281 136.484375 156.652344 144.65625 156.652344 154.667969 C 156.652344 164.679688 148.488281 172.851562 138.46875 172.851562 Z M 66.960938 212.371094 C 56.949219 212.371094 48.785156 204.199219 48.785156 194.1875 C 48.785156 184.171875 56.949219 176.003906 66.960938 176.003906 C 76.980469 176.003906 85.144531 184.171875 85.144531 194.1875 C 85.144531 204.199219 76.980469 212.371094 66.960938 212.371094 Z M 32.011719 247.394531 C 35.832031 231.636719 50.03125 219.929688 66.960938 219.929688 C 83.898438 219.929688 98.097656 231.636719 101.945312 247.390625 C 102.203125 248.511719 101.9375 249.691406 101.21875 250.59375 C 100.503906 251.496094 99.414062 252.019531 98.261719 252.019531 C 85.433594 252.019531 48.492188 252.019531 35.660156 251.988281 C 34.519531 251.988281 33.441406 251.464844 32.730469 250.570312 C 32.019531 249.675781 31.753906 248.507812 32.011719 247.394531 Z M 128.425781 307.335938 C 132.246094 291.574219 146.445312 279.871094 163.375 279.871094 C 180.3125 279.871094 194.511719 291.574219 198.359375 307.328125 C 198.617188 308.453125 198.351562 309.632812 197.636719 310.535156 C 196.917969 311.433594 195.828125 311.960938 194.675781 311.960938 C 181.847656 311.960938 144.90625 311.960938 132.074219 311.925781 C 130.933594 311.925781 129.855469 311.40625 129.144531 310.511719 C 128.433594 309.617188 128.167969 308.449219 128.425781 307.335938 Z M 102.714844 83.074219 C 92.703125 83.074219 84.539062 74.902344 84.539062 64.890625 C 84.539062 54.878906 92.703125 46.707031 102.714844 46.707031 C 112.734375 46.707031 120.898438 54.878906 120.898438 64.890625 C 120.898438 74.902344 112.734375 83.074219 102.714844 83.074219 Z M 163.375 272.308594 C 153.363281 272.308594 145.199219 264.136719 145.199219 254.125 C 145.199219 244.113281 153.363281 235.941406 163.375 235.941406 C 173.398438 235.941406 181.558594 244.113281 181.558594 254.125 C 181.558594 264.136719 173.398438 272.308594 163.375 272.308594 Z M 67.765625 118.097656 C 71.585938 102.339844 85.785156 90.632812 102.714844 90.632812 C 119.652344 90.632812 133.851562 102.339844 137.699219 118.09375 C 137.957031 119.214844 137.691406 120.394531 136.972656 121.296875 C 136.257812 122.199219 135.167969 122.722656 134.015625 122.722656 C 121.1875 122.722656 84.246094 122.722656 71.414062 122.691406 C 70.273438 122.691406 69.195312 122.167969 68.484375 121.273438 C 67.773438 120.382812 67.507812 119.210938 67.765625 118.097656 Z M 281.558594 335.582031 C 328.847656 305.484375 360.75 253.351562 362.796875 193.644531 L 198.09375 193.574219 Z M 259.292969 269.234375 C 263.113281 253.472656 277.3125 241.769531 294.242188 241.769531 C 311.179688 241.769531 325.378906 253.476562 329.226562 269.230469 C 329.484375 270.351562 329.21875 271.53125 328.5 272.433594 C 327.785156 273.332031 326.695312 273.859375 325.542969 273.859375 C 312.714844 273.859375 275.773438 273.859375 262.941406 273.824219 C 261.800781 273.824219 260.71875 273.304688 260.007812 272.410156 C 259.300781 271.515625 259.035156 270.347656 259.292969 269.234375 Z M 294.242188 234.207031 C 284.226562 234.207031 276.066406 226.039062 276.066406 216.023438 C 276.066406 206.011719 284.226562 197.839844 294.242188 197.839844 C 304.261719 197.839844 312.425781 206.011719 312.425781 216.023438 C 312.425781 226.039062 304.261719 234.207031 294.242188 234.207031 Z M 294.242188 234.207031 " fill-opacity="1" fill-rule="evenodd"/></svg>