<svg xmlns="http://www.w3.org/2000/svg" xmlns:xlink="http://www.w3.org/1999/xlink" width="500" zoomAndPan="magnify" viewBox="0 0 375 374.999991" height="500" preserveAspectRatio="xMidYMid meet" version="1.0"><defs><clipPath id="6be9c5a24e"><path d="M 5 5 L 373 5 L 373 373.9375 L 5 373.9375 Z M 5 5 " clip-rule="nonzero"/></clipPath></defs><path fill="#ffffff" d="M 126.660156 238.527344 C 128.753906 238.527344 130.84375 237.726562 132.4375 236.132812 L 144.371094 224.199219 C 147.566406 221.007812 147.566406 215.832031 144.371094 212.640625 C 141.183594 209.449219 136.003906 209.449219 132.8125 212.640625 L 120.882812 224.574219 C 117.6875 227.765625 117.6875 232.941406 120.882812 236.132812 C 122.476562 237.726562 124.570312 238.527344 126.660156 238.527344 Z M 126.660156 238.527344 " fill-opacity="1" fill-rule="nonzero"/><path fill="#ffffff" d="M 113.960938 243.050781 C 110.773438 239.855469 105.59375 239.855469 102.402344 243.050781 L 35.929688 309.523438 C 32.738281 312.714844 32.738281 317.890625 35.929688 321.082031 C 37.523438 322.679688 39.617188 323.476562 41.707031 323.476562 C 43.800781 323.476562 45.894531 322.679688 47.488281 321.082031 L 113.960938 254.605469 C 117.15625 251.414062 117.15625 246.242188 113.960938 243.050781 Z M 113.960938 243.050781 " fill-opacity="1" fill-rule="nonzero"/><path fill="#ffffff" d="M 154.71875 234.546875 L 96.9375 292.324219 C 93.746094 295.515625 93.746094 300.691406 96.9375 303.882812 C 98.53125 305.476562 100.625 306.277344 102.71875 306.277344 C 104.808594 306.277344 106.902344 305.476562 108.496094 303.882812 L 166.277344 246.101562 C 169.46875 242.914062 169.46875 237.734375 166.277344 234.546875 C 163.085938 231.351562 157.90625 231.351562 154.71875 234.546875 Z M 154.71875 234.546875 " fill-opacity="1" fill-rule="nonzero"/><path fill="#ffffff" d="M 75.898438 313.367188 L 57.832031 331.429688 C 54.640625 334.625 54.640625 339.796875 57.835938 342.992188 C 59.433594 344.585938 61.523438 345.382812 63.613281 345.382812 C 65.707031 345.382812 67.800781 344.585938 69.394531 342.988281 L 87.457031 324.925781 C 90.648438 321.734375 90.648438 316.558594 87.457031 313.367188 C 84.265625 310.175781 79.089844 310.175781 75.898438 313.367188 Z M 75.898438 313.367188 " fill-opacity="1" fill-rule="nonzero"/><g clip-path="url(#6be9c5a24e)"><path fill="#ffffff" d="M 66.714844 81.714844 C 62.15625 86.265625 54.738281 86.261719 50.171875 81.695312 L 22.351562 53.871094 C 22.289062 53.808594 22.214844 53.769531 22.152344 53.710938 C 21.933594 53.503906 21.695312 53.320312 21.449219 53.136719 C 21.25 52.984375 21.050781 52.835938 20.839844 52.703125 C 20.621094 52.570312 20.386719 52.457031 20.152344 52.34375 C 19.890625 52.210938 19.625 52.085938 19.351562 51.988281 C 19.265625 51.957031 19.195312 51.910156 19.109375 51.878906 C 18.957031 51.832031 18.808594 51.824219 18.65625 51.78125 C 18.371094 51.707031 18.085938 51.636719 17.792969 51.59375 C 17.542969 51.554688 17.296875 51.535156 17.050781 51.523438 C 16.769531 51.507812 16.492188 51.496094 16.214844 51.511719 C 15.96875 51.523438 15.730469 51.546875 15.488281 51.582031 C 15.199219 51.617188 14.917969 51.667969 14.636719 51.738281 C 14.414062 51.792969 14.199219 51.859375 13.988281 51.929688 C 13.699219 52.027344 13.417969 52.132812 13.144531 52.261719 C 12.9375 52.355469 12.738281 52.464844 12.542969 52.578125 C 12.289062 52.722656 12.042969 52.875 11.800781 53.046875 C 11.585938 53.203125 11.386719 53.375 11.1875 53.550781 C 11.058594 53.664062 10.917969 53.75 10.792969 53.871094 C 10.726562 53.941406 10.679688 54.019531 10.613281 54.089844 C 10.421875 54.292969 10.253906 54.515625 10.082031 54.742188 C 9.917969 54.957031 9.757812 55.167969 9.621094 55.390625 C 9.488281 55.605469 9.382812 55.832031 9.269531 56.058594 C 9.136719 56.324219 9.011719 56.589844 8.910156 56.871094 C 8.878906 56.953125 8.832031 57.027344 8.800781 57.113281 C 0.117188 83.71875 7.007812 112.53125 26.789062 132.308594 C 40.945312 146.46875 59.796875 153.984375 79.019531 153.984375 C 86.597656 153.984375 94.222656 152.75 101.652344 150.359375 L 131.804688 180.511719 C 126.664062 181.09375 121.671875 183.246094 117.738281 187.179688 L 18.460938 286.457031 C 4.824219 300.089844 4.824219 322.273438 18.460938 335.90625 L 43.007812 360.453125 C 49.824219 367.273438 58.777344 370.679688 67.734375 370.679688 C 76.6875 370.679688 85.640625 367.273438 92.457031 360.453125 L 191.734375 261.179688 C 195.667969 257.246094 197.820312 252.25 198.398438 247.109375 L 228.503906 277.214844 C 220.03125 303.5 226.855469 332.382812 246.605469 352.128906 C 260.730469 366.253906 279.460938 373.808594 298.707031 373.808594 C 306.410156 373.808594 314.195312 372.597656 321.800781 370.113281 C 321.886719 370.085938 321.960938 370.039062 322.046875 370.007812 C 322.320312 369.90625 322.582031 369.785156 322.84375 369.65625 C 323.078125 369.539062 323.3125 369.425781 323.535156 369.292969 C 323.746094 369.160156 323.941406 369.011719 324.144531 368.859375 C 324.386719 368.675781 324.625 368.492188 324.847656 368.285156 C 324.910156 368.226562 324.980469 368.183594 325.042969 368.125 C 325.152344 368.015625 325.226562 367.890625 325.328125 367.777344 C 325.527344 367.550781 325.722656 367.328125 325.894531 367.082031 C 326.046875 366.871094 326.175781 366.65625 326.304688 366.4375 C 326.4375 366.203125 326.566406 365.972656 326.679688 365.726562 C 326.789062 365.488281 326.878906 365.242188 326.964844 364.996094 C 327.050781 364.746094 327.128906 364.496094 327.191406 364.234375 C 327.25 363.984375 327.292969 363.734375 327.328125 363.480469 C 327.367188 363.214844 327.394531 362.945312 327.40625 362.675781 C 327.417969 362.414062 327.410156 362.160156 327.394531 361.898438 C 327.378906 361.636719 327.359375 361.375 327.320312 361.113281 C 327.277344 360.828125 327.210938 360.550781 327.136719 360.269531 C 327.09375 360.117188 327.085938 359.960938 327.035156 359.808594 C 327.007812 359.722656 326.957031 359.648438 326.925781 359.5625 C 326.828125 359.292969 326.703125 359.03125 326.574219 358.765625 C 326.457031 358.53125 326.34375 358.296875 326.210938 358.074219 C 326.078125 357.863281 325.929688 357.667969 325.777344 357.46875 C 325.59375 357.222656 325.410156 356.984375 325.207031 356.765625 C 325.144531 356.703125 325.105469 356.628906 325.042969 356.566406 L 297.21875 328.746094 C 292.652344 324.179688 292.644531 316.757812 297.199219 312.203125 L 311.152344 298.25 C 315.707031 293.695312 323.125 293.707031 327.691406 298.269531 L 355.515625 326.09375 C 355.578125 326.15625 355.648438 326.195312 355.710938 326.253906 C 355.929688 326.460938 356.164062 326.640625 356.40625 326.824219 C 356.609375 326.976562 356.808594 327.132812 357.023438 327.261719 C 357.238281 327.394531 357.46875 327.503906 357.695312 327.617188 C 357.964844 327.75 358.234375 327.878906 358.515625 327.980469 C 358.59375 328.007812 358.664062 328.054688 358.75 328.082031 C 358.832031 328.109375 358.917969 328.097656 359 328.121094 C 359.742188 328.339844 360.503906 328.484375 361.269531 328.488281 C 361.28125 328.488281 361.289062 328.492188 361.296875 328.492188 C 361.308594 328.492188 361.320312 328.484375 361.335938 328.484375 C 362.078125 328.480469 362.816406 328.34375 363.535156 328.136719 C 363.6875 328.09375 363.832031 328.058594 363.980469 328.007812 C 364.664062 327.769531 365.324219 327.449219 365.941406 327.023438 C 366.050781 326.945312 366.140625 326.851562 366.25 326.769531 C 366.53125 326.554688 366.816406 326.351562 367.074219 326.09375 C 367.285156 325.886719 367.441406 325.648438 367.625 325.421875 C 367.730469 325.292969 367.839844 325.175781 367.9375 325.039062 C 368.386719 324.40625 368.730469 323.730469 368.980469 323.019531 C 369 322.960938 369.042969 322.917969 369.0625 322.863281 C 377.777344 296.273438 370.886719 267.457031 351.082031 247.65625 C 331.335938 227.90625 302.460938 221.085938 276.191406 229.558594 L 227.113281 180.484375 L 316.273438 91.324219 L 334.675781 92.613281 C 334.867188 92.625 335.058594 92.632812 335.246094 92.632812 C 338.203125 92.632812 340.945312 91.035156 342.394531 88.425781 L 371.917969 35.210938 C 373.6875 32.019531 373.132812 28.042969 370.550781 25.464844 L 368.574219 23.488281 C 368.570312 23.484375 368.566406 23.480469 368.5625 23.476562 L 355.441406 10.351562 C 355.4375 10.347656 355.433594 10.347656 355.429688 10.34375 L 353.449219 8.363281 C 350.871094 5.78125 346.894531 5.222656 343.707031 6.996094 L 290.492188 36.523438 C 287.714844 38.0625 286.082031 41.074219 286.304688 44.242188 L 287.59375 62.644531 L 198.433594 151.800781 L 149.355469 102.726562 C 157.828125 76.453125 151.007812 47.578125 131.257812 27.832031 C 111.457031 8.03125 82.636719 1.136719 56.054688 9.851562 C 55.972656 9.878906 55.902344 9.925781 55.820312 9.957031 C 55.542969 10.058594 55.273438 10.1875 55.003906 10.316406 C 54.773438 10.429688 54.546875 10.539062 54.332031 10.671875 C 54.117188 10.804688 53.917969 10.960938 53.714844 11.113281 C 53.472656 11.292969 53.234375 11.476562 53.019531 11.679688 C 52.957031 11.738281 52.882812 11.78125 52.824219 11.839844 C 52.714844 11.949219 52.636719 12.078125 52.535156 12.191406 C 52.335938 12.417969 52.144531 12.640625 51.972656 12.886719 C 51.820312 13.097656 51.6875 13.316406 51.558594 13.535156 C 51.425781 13.765625 51.300781 13.996094 51.191406 14.238281 C 51.078125 14.484375 50.984375 14.730469 50.898438 14.980469 C 50.8125 15.230469 50.738281 15.476562 50.675781 15.730469 C 50.617188 15.984375 50.574219 16.238281 50.539062 16.496094 C 50.5 16.761719 50.472656 17.023438 50.460938 17.292969 C 50.449219 17.554688 50.457031 17.820312 50.472656 18.082031 C 50.488281 18.339844 50.507812 18.59375 50.546875 18.851562 C 50.589844 19.144531 50.660156 19.429688 50.738281 19.714844 C 50.777344 19.867188 50.789062 20.019531 50.835938 20.167969 C 50.863281 20.253906 50.910156 20.324219 50.941406 20.40625 C 51.042969 20.679688 51.167969 20.941406 51.296875 21.207031 C 51.410156 21.445312 51.527344 21.679688 51.660156 21.902344 C 51.789062 22.105469 51.933594 22.296875 52.078125 22.492188 C 52.269531 22.742188 52.457031 22.988281 52.671875 23.21875 C 52.726562 23.277344 52.765625 23.347656 52.824219 23.402344 L 80.644531 51.222656 C 85.210938 55.792969 85.222656 63.210938 80.667969 67.765625 Z M 180.175781 249.621094 L 80.902344 348.898438 C 73.636719 356.15625 61.828125 356.15625 54.566406 348.898438 L 30.019531 324.351562 C 22.757812 317.089844 22.757812 305.277344 30.019531 298.015625 L 129.292969 198.738281 C 132.152344 195.886719 136.792969 195.886719 139.648438 198.738281 L 146.226562 205.316406 C 149.417969 208.507812 154.589844 208.511719 157.785156 205.320312 C 160.980469 202.128906 160.980469 196.953125 157.789062 193.761719 L 156.609375 192.582031 L 161.949219 187.242188 C 164.207031 184.996094 167.871094 184.992188 170.125 187.242188 L 172.328125 189.449219 C 172.332031 189.449219 172.332031 189.453125 172.335938 189.457031 L 191.671875 208.792969 C 193.925781 211.046875 193.929688 214.714844 191.652344 216.992188 L 186.335938 222.304688 L 176.949219 212.917969 C 173.757812 209.726562 168.578125 209.726562 165.390625 212.917969 C 162.199219 216.109375 162.199219 221.285156 165.390625 224.476562 L 180.179688 239.265625 C 183.03125 242.121094 183.03125 246.765625 180.175781 249.621094 Z M 268.3125 244.789062 C 268.3125 244.789062 268.316406 244.792969 268.316406 244.792969 L 268.332031 244.8125 C 268.578125 245.054688 268.851562 245.246094 269.117188 245.449219 C 269.261719 245.5625 269.390625 245.695312 269.542969 245.800781 C 270.917969 246.730469 272.511719 247.207031 274.113281 247.207031 C 275.230469 247.207031 276.339844 246.960938 277.382812 246.507812 C 298.8125 237.902344 323.183594 242.867188 339.527344 259.210938 C 351.496094 271.183594 357.375 287.378906 356.25 303.707031 L 339.253906 286.710938 C 328.320312 275.777344 310.527344 275.765625 299.597656 286.691406 L 285.644531 300.644531 C 274.714844 311.574219 274.726562 329.363281 285.667969 340.300781 L 302.652344 357.289062 C 286.316406 358.40625 270.121094 352.527344 258.164062 340.574219 C 241.875 324.28125 236.890625 300.015625 245.375 278.621094 C 246.152344 278.234375 246.894531 277.75 247.542969 277.097656 L 254.476562 270.117188 C 257.660156 266.917969 257.644531 261.742188 254.441406 258.5625 C 251.242188 255.378906 246.070312 255.394531 242.886719 258.597656 L 237.960938 263.550781 L 203.082031 228.671875 L 203.230469 228.523438 C 210.628906 221.128906 211.632812 209.777344 206.347656 201.246094 L 215.558594 192.035156 Z M 346.25 24.28125 L 354.636719 32.667969 L 330.625 75.941406 L 313.679688 74.753906 C 313.585938 74.746094 313.492188 74.765625 313.398438 74.761719 C 313.144531 74.753906 312.890625 74.769531 312.640625 74.78125 C 312.328125 74.800781 312.019531 74.820312 311.71875 74.871094 C 311.554688 74.898438 311.398438 74.945312 311.234375 74.984375 C 310.863281 75.070312 310.5 75.167969 310.152344 75.304688 C 310.042969 75.347656 309.941406 75.402344 309.835938 75.449219 C 309.445312 75.621094 309.070312 75.8125 308.710938 76.042969 C 308.632812 76.09375 308.558594 76.152344 308.480469 76.207031 C 308.105469 76.464844 307.753906 76.75 307.425781 77.070312 C 307.402344 77.09375 307.375 77.109375 307.351562 77.132812 L 195.238281 189.246094 L 189.671875 183.679688 L 301.785156 71.566406 C 301.820312 71.53125 301.84375 71.488281 301.878906 71.453125 C 302.15625 71.160156 302.410156 70.847656 302.644531 70.515625 C 302.730469 70.394531 302.824219 70.28125 302.902344 70.15625 C 303.097656 69.851562 303.253906 69.527344 303.40625 69.195312 C 303.480469 69.035156 303.5625 68.875 303.625 68.710938 C 303.742188 68.410156 303.824219 68.097656 303.902344 67.78125 C 303.957031 67.574219 304.015625 67.367188 304.050781 67.15625 C 304.09375 66.882812 304.113281 66.601562 304.128906 66.320312 C 304.148438 66.050781 304.164062 65.78125 304.15625 65.511719 C 304.152344 65.417969 304.167969 65.328125 304.164062 65.234375 L 302.976562 48.289062 Z M 92.207031 39.664062 L 75.210938 22.667969 C 91.539062 21.542969 107.738281 27.421875 119.703125 39.390625 C 135.820312 55.503906 140.851562 79.414062 132.742188 100.628906 C 132.355469 100.902344 131.980469 101.191406 131.636719 101.535156 L 124.699219 108.511719 C 121.515625 111.714844 121.53125 116.890625 124.734375 120.074219 C 126.328125 121.65625 128.414062 122.449219 130.496094 122.449219 C 132.597656 122.449219 134.695312 121.644531 136.292969 120.039062 L 139.917969 116.394531 L 186.878906 163.359375 L 177.667969 172.570312 C 169.136719 167.289062 157.785156 168.296875 150.367188 175.710938 L 150.242188 175.839844 L 109.71875 135.316406 C 107.46875 132.964844 103.941406 132.085938 100.746094 133.378906 C 79.242188 142.105469 54.746094 137.152344 38.34375 120.753906 C 26.390625 108.800781 20.519531 92.609375 21.632812 76.269531 L 38.617188 93.253906 C 44.089844 98.726562 51.277344 101.464844 58.464844 101.464844 C 65.640625 101.464844 72.8125 98.734375 78.273438 93.273438 L 92.226562 79.320312 C 103.152344 68.394531 103.144531 50.605469 92.207031 39.664062 Z M 92.207031 39.664062 " fill-opacity="1" fill-rule="nonzero"/></g></svg>