<svg xmlns="http://www.w3.org/2000/svg" xmlns:xlink="http://www.w3.org/1999/xlink" width="500" zoomAndPan="magnify" viewBox="0 0 375 374.999991" height="500" preserveAspectRatio="xMidYMid meet" version="1.0"><path fill="#ffffff" d="M 200.40625 1.664062 C 172.175781 -0.0195312 144.882812 4.410156 119.167969 14.804688 C 116.703125 15.765625 115.148438 18.175781 115.148438 20.925781 C 115.148438 22.066406 115.382812 23.101562 115.875 24.035156 C 117.507812 27.121094 121.109375 28.414062 124.300781 27.121094 C 148.199219 17.425781 173.601562 13.328125 199.886719 14.960938 C 284.625 20.300781 353.730469 88.007812 360.730469 172.460938 C 364.929688 223.214844 346.785156 272.960938 310.960938 308.914062 C 275.113281 344.867188 225.394531 363.140625 174.664062 359.125 C 92.777344 352.539062 25.046875 285.972656 17.085938 204.320312 C 12.734375 159.214844 25.746094 115.046875 53.742188 79.894531 C 54.90625 78.417969 56.671875 77.511719 58.535156 77.40625 C 60.507812 77.304688 62.269531 78.003906 63.617188 79.351562 L 71.265625 87 L 75.957031 47.625 L 36.554688 52.601562 L 44.71875 60.375 C 47.128906 62.789062 47.3125 66.625 45.136719 69.269531 C 14.804688 106.230469 0.00390625 153.046875 3.480469 201.132812 C 10.011719 291 82.617188 364.566406 172.382812 372.242188 C 225.652344 376.75 278.300781 358.449219 316.792969 321.875 C 355.261719 285.300781 376.308594 233.871094 374.496094 180.730469 C 371.28125 86.089844 294.8125 7.417969 200.40625 1.664062 " fill-opacity="1" fill-rule="nonzero"/><path fill="#ffffff" d="M 187.003906 101.125 L 119.816406 120.695312 L 188.792969 140.421875 L 257.769531 120.695312 L 190.582031 101.125 C 189.414062 100.789062 188.171875 100.789062 187.003906 101.125 " fill-opacity="1" fill-rule="nonzero"/><path fill="#ffffff" d="M 161.132812 191.074219 C 159.136719 191.074219 157.140625 190.761719 155.171875 190.191406 L 102.527344 174.535156 L 102.527344 255.410156 L 182.15625 278.117188 L 182.15625 174.5625 L 179.28125 180.136719 C 175.726562 186.976562 168.652344 191.046875 161.132812 191.074219 " fill-opacity="1" fill-rule="nonzero"/><path fill="#ffffff" d="M 287.632812 154.757812 C 288.382812 153.304688 288.539062 151.671875 288.074219 150.144531 L 278.066406 128.707031 L 198.410156 151.464844 L 210.101562 174.015625 C 211.628906 177 215.285156 178.449219 218.628906 177.464844 L 283.382812 158.230469 C 285.246094 157.660156 286.777344 156.441406 287.632812 154.757812 " fill-opacity="1" fill-rule="nonzero"/><path fill="#ffffff" d="M 198.304688 180.136719 L 195.429688 174.5625 L 195.429688 278.144531 L 275.035156 255.410156 L 275.058594 174.535156 L 222.414062 190.191406 C 220.441406 190.761719 218.445312 191.046875 216.449219 191.046875 C 208.933594 191.046875 201.855469 186.976562 198.304688 180.136719 " fill-opacity="1" fill-rule="nonzero"/><path fill="#ffffff" d="M 89.511719 150.144531 C 89.046875 151.671875 89.203125 153.304688 89.953125 154.757812 C 90.808594 156.441406 92.339844 157.660156 94.203125 158.230469 L 158.957031 177.464844 C 162.273438 178.476562 165.957031 176.972656 167.484375 174.042969 L 179.175781 151.464844 L 99.519531 128.707031 L 89.511719 150.144531 " fill-opacity="1" fill-rule="nonzero"/></svg>